<svg width="35" height="35" viewBox="0 0 35 35" fill="none" xmlns="http://www.w3.org/2000/svg">
<path fill-rule="evenodd" clip-rule="evenodd" d="M17.5 35C27.165 35 35 27.165 35 17.5C35 7.83502 27.165 0 17.5 0C7.83502 0 0 7.83502 0 17.5C0 27.165 7.83502 35 17.5 35ZM7 9.91667C7.00199 8.30652 8.30652 7.00199 9.91667 7H25.0833C26.6935 7.00199 27.998 8.30652 28 9.91667V25.0833C27.998 26.6935 26.6935 27.998 25.0833 28H9.91667C8.30652 27.998 7.00199 26.6935 7 25.0833V9.91667ZM25.0833 26.8333C26.0498 26.8333 26.8333 26.0498 26.8333 25.0833V9.91667C26.8333 8.95024 26.0498 8.16667 25.0833 8.16667H9.91667C8.95024 8.16667 8.16667 8.95024 8.16667 9.91667V25.0833C8.16667 26.0498 8.95024 26.8333 9.91667 26.8333H25.0833ZM17.5 11.6667C14.2783 11.6667 11.6667 14.2783 11.6667 17.5C11.6667 20.7217 14.2783 23.3333 17.5 23.3333C20.7217 23.3333 23.3333 20.7217 23.3333 17.5C23.3299 14.2797 20.7203 11.6701 17.5 11.6667ZM17.5 22.1667C14.9226 22.1667 12.8333 20.0774 12.8333 17.5C12.8333 14.9226 14.9226 12.8333 17.5 12.8333C20.0774 12.8333 22.1667 14.9226 22.1667 17.5C22.1638 20.076 20.076 22.1638 17.5 22.1667ZM22.1667 11.0833C22.1667 10.1169 22.9502 9.33333 23.9167 9.33333C24.8831 9.33333 25.6667 10.1169 25.6667 11.0833C25.6667 12.0498 24.8831 12.8333 23.9167 12.8333C22.9502 12.8333 22.1667 12.0498 22.1667 11.0833ZM23.3333 11.0833C23.3333 11.4055 23.5945 11.6667 23.9167 11.6667C24.2388 11.6667 24.5 11.4055 24.5 11.0833C24.5 10.7612 24.2388 10.5 23.9167 10.5C23.5945 10.5 23.3333 10.7612 23.3333 11.0833Z" fill="white"/>
</svg>
