<svg width="35" height="35" viewBox="0 0 35 35" fill="none" xmlns="http://www.w3.org/2000/svg">
<path fill-rule="evenodd" clip-rule="evenodd" d="M35 17.5001C35 7.83562 27.1655 0 17.4999 0C7.83454 0 0 7.83574 0 17.5001C0 27.1644 7.83442 35 17.4999 35C27.1655 35 35 27.1645 35 17.5001ZM13.1381 24.045H9.86123V13.1228H13.1381V24.045ZM18.6048 14.6071C19.6142 13.3252 21.0372 12.7444 22.6275 12.7444C24.2189 12.7444 26.2577 13.5385 26.2578 17.8446V24.044H22.9809V18.0885C22.9809 16.8668 22.6264 15.6451 21.1893 15.6451C19.7521 15.6451 18.6048 16.8668 18.6048 18.1192V24.0451H15.3159V13.0868H18.6048V14.6071ZM13.125 10.3906C13.125 11.2962 12.39 12.0313 11.4844 12.0313C10.5787 12.0313 9.84369 11.2963 9.84369 10.3907C9.84369 9.48507 10.5787 8.75003 11.4844 8.75003C12.39 8.75003 13.125 9.48495 13.125 10.3906Z" fill="white"/>
</svg>
