<svg width="35" height="35" viewBox="0 0 35 35" fill="none" xmlns="http://www.w3.org/2000/svg">
<path fill-rule="evenodd" clip-rule="evenodd" d="M35 17.5001C35 7.83562 27.1655 0 17.4999 0C7.83454 0 0 7.83562 0 17.5001C0 27.1655 7.83442 35 17.4999 35C27.1655 35 35 27.1656 35 17.5001ZM25.9908 12.4425C26.8537 12.3418 27.6763 12.1198 28.4408 11.7895C27.8688 12.6208 27.1458 13.3492 26.3146 13.9312L26.3266 14.4671C26.3266 19.9359 22.0369 26.2447 14.1925 26.2447C11.7831 26.2447 9.54298 25.5589 7.65409 24.3842C7.98881 24.4225 8.32785 24.4422 8.67242 24.4422C10.6706 24.4422 12.5093 23.7815 13.9694 22.6703C12.1024 22.6374 10.5273 21.4409 9.98487 19.7959C10.2452 19.8451 10.5121 19.8702 10.7866 19.8702C11.176 19.8702 11.5523 19.8188 11.9099 19.7247C9.95868 19.3441 8.48873 17.6717 8.48873 15.6658V15.6133C9.06505 15.925 9.72139 16.1099 10.4213 16.1317C9.27723 15.3912 8.52477 14.1225 8.52477 12.6875C8.52477 11.9284 8.73478 11.2186 9.1023 10.6072C11.2044 13.1107 14.3479 14.7591 17.8916 14.9319C17.8184 14.6289 17.7812 14.3128 17.7812 13.9879C17.7812 11.702 19.6909 9.85028 22.0446 9.85028C23.2717 9.85028 24.3797 10.3524 25.1574 11.1562C26.1297 10.9715 27.042 10.6269 27.8666 10.1511C27.5484 11.119 26.8724 11.9295 25.9908 12.4425Z" fill="white"/>
</svg>
