<svg width="35" height="35" viewBox="0 0 35 35" fill="none" xmlns="http://www.w3.org/2000/svg">
<path fill-rule="evenodd" clip-rule="evenodd" d="M35 17.5001C35 7.83562 27.1655 0 17.4999 0C7.83454 0 0 7.83562 0 17.5001C0 27.1655 7.83442 35 17.4999 35C27.1655 35 35 27.1656 35 17.5001ZM9.14091 12.876C8.61038 13.3804 8.10711 13.8589 7.65625 14.2187L8.51058 15.3955C8.51058 15.3955 9.71802 14.4363 10.1457 14.5074C11.0631 14.7486 11.8699 17.9192 12.3916 19.9695C12.4969 20.3832 12.5905 20.7512 12.6711 21.0404C12.7255 21.2363 12.7813 21.4549 12.841 21.6886C13.3063 23.5119 14.005 26.25 16.1011 26.25C19.9238 26.25 26.2512 16.6862 26.2512 13.5646C26.2512 11.5138 25.6813 9.84369 23.3167 9.84369C20.9531 9.84369 19.1047 11.3871 18.3041 14.2898C19.1746 13.8731 20.7583 13.6554 20.8809 15.1068C21.0055 16.5583 18.8191 20.3153 17.8588 20.3153C16.9007 20.3153 16.1887 16.0682 15.9382 14.1268C15.6909 12.1854 15.2458 10.0449 13.4335 10.0449C12.1189 10.0449 10.5357 11.55 9.14091 12.876Z" fill="white"/>
</svg>
