<svg width="10" height="10" viewBox="0 0 10 10" fill="none" xmlns="http://www.w3.org/2000/svg">
<path d="M5 10C2.24305 10 0 7.75695 0 5C0 2.24305 2.24305 0 5 0C7.75695 0 10 2.24305 10 5C10 7.75695 7.75695 10 5 10ZM5 0.625003C2.58758 0.625003 0.625003 2.58758 0.625003 5C0.625003 7.41242 2.58758 9.375 5 9.375C7.41242 9.375 9.375 7.41242 9.375 5C9.375 2.58758 7.41242 0.625003 5 0.625003V0.625003Z" fill="#85879C"/>
<path d="M5.00001 7.50002C3.62154 7.50002 2.5 6.37851 2.5 5.00001C2.5 3.62151 3.62151 2.5 5.00001 2.5C5.6778 2.5 6.31196 2.76673 6.78621 3.25104L6.33944 3.68804C5.98392 3.32487 5.50846 3.12498 5.00001 3.12498C3.96607 3.12498 3.125 3.96605 3.125 4.99999C3.125 6.03393 3.96607 6.875 5.00001 6.875C5.50814 6.875 5.9836 6.67511 6.33944 6.31194L6.7856 6.74957C6.31165 7.23359 5.67751 7.5 5.00001 7.50002Z" fill="#85879C"/>
</svg>
